# xmcd
#
# Track frame offsets: 
#        150
#        16434
#        29263
#        60551
#        86113
#        99067
#        110168
#        137158
#        157301
#        172380
#        192446
#        211189
#
# Disc length: 3092 seconds
#
# Revision: 0
# Processed by: cddbd v1.5.2PL0 Copyright (c) Steve Scherf et al.
# Submitted via: ExactAudioCopy v1.3
#
DISCID=ac0c120c
DTITLE=Bob Corritore and Friends - Don't Let The Devil Ride!
DYEAR=2018
DGENRE=Blues
TTITLE0=Went Home This Morning
TTITLE1=Tell Me Mama
TTITLE2=The Glide
TTITLE3=Laundromat Blues
TTITLE4=Fork In The Road
TTITLE5=Lovey Dovey Lovey One
TTITLE6=Don't Let The Devil Ride
TTITLE7=Willie Mae
TTITLE8=Steal Your Joy
TTITLE9=I Was A Fool
TTITLE10=Blues Why You Worry Me!
TTITLE11=Thundering And Raining
EXTD=
EXTT0=
EXTT1=
EXTT2=
EXTT3=
EXTT4=
EXTT5=
EXTT6=
EXTT7=
EXTT8=
EXTT9=
EXTT10=
EXTT11=
PLAYORDER=
